<svg height='100px' width='100px'  fill='#00B8C2' xmlns="http://www.w3.org/2000/svg" xmlns:xlink="http://www.w3.org/1999/xlink" version="1.1" x="0px" y="0px" viewBox="0 0 100 100" style="enable-background:new 0 0 100 100;" xml:space="preserve"><g><path d="M83.7,91.2c0.3-0.5,0.4-1.2,0.2-1.8L65.6,42.1l9.3-29.2c0.3-1-0.2-2.2-1.3-2.5L60.8,6.1C60.6,6.1,60.4,6,60.2,6H37.8   c-0.3,0-0.5,0-0.7,0.1l-10.8,4.3c-0.9,0.4-1.5,1.4-1.2,2.4l7.4,29.3L16.1,89.5c-0.2,0.6-0.1,1.2,0.2,1.7c0.3,0.5,0.9,0.9,1.5,0.9   l21,1.8c0.1,0,0.1,0,0.2,0h22c0.1,0,0.1,0,0.2,0l21-1.8C82.8,92.1,83.4,91.7,83.7,91.2z M57.4,10c-0.9,3.6-4.1,6.2-7.9,6.2   s-7.1-2.7-7.9-6.2H57.4z M37.5,10.3c1,5.7,6,10,12,10c5.9,0,10.8-4.2,11.9-9.7l9.1,3L62,40.1H36.1l-6.7-26.6L37.5,10.3z M60.9,90   H39.1l-18.4-1.6L36,44.1h26l17.1,44.3L60.9,90z"></path></g></svg>
