<svg height='100px' width='100px'  fill='#00B8C2' xmlns="http://www.w3.org/2000/svg" viewBox="0 0 512 512" x="0px" y="0px"><path d="M380.678,94.49A8,8,0,0,0,384,88V24a8,8,0,0,0-9.4-7.876C373.706,16.283,285.22,32,256,32S138.295,16.283,137.4,16.124A8,8,0,0,0,128,24V88a8,8,0,0,0,10.53,7.59l41.883-13.962,11.657,87.43c.014.1.037.2.054.3C186.021,187.939,161,265.964,161,296c0,32.227,23.1,186.63,24.088,193.187A8,8,0,0,0,193,496H321a8,8,0,0,0,7.912-6.813C329.9,482.63,353,328.227,353,296c0-33.479-31.091-126.6-32.415-130.543-.037-.109-.093-.207-.133-.313l11.135-83.516L373.47,95.59a8,8,0,0,0,7.208-1.1ZM305,160H207L196.338,80H315.662Zm32,136c0,27.327-18.345,153.178-22.9,184H199.9C195.345,449.179,177,323.328,177,296c0-26.545,23.1-99.441,29.791-120H307.209C313.9,196.559,337,269.455,337,296ZM368,76.9,330.53,64.41A8.027,8.027,0,0,0,328,64H184a8.027,8.027,0,0,0-2.53.41L144,76.9V33.515C168.019,37.635,230.932,48,256,48s87.981-10.365,112-14.485Z"></path></svg>
