<svg width="1200" height="630" viewBox="0 0 1200 630" fill="none" xmlns="http://www.w3.org/2000/svg">
<rect width="1200" height="630"/>
<path d="M0 402.955C0 402.955 198.689 441.892 285.246 441.892C371.803 441.892 1200 402.955 1200 402.955V462.505H0V402.955Z" fill="white"/>
<rect y="453" width="1200" height="177" fill="white"/>
<path d="M36.6 506.693C37.896 506.645 38.88 506.501 39.552 506.261C40.224 505.973 40.752 505.397 41.136 504.533C41.52 503.669 41.712 502.301 41.712 500.429V472.853C41.712 470.165 41.808 468.005 42 466.373L36.6 466.589V461.045L56.544 460.901C62.304 460.853 66.816 461.885 70.08 463.997C73.344 466.109 74.976 469.205 74.976 473.285C74.976 475.637 74.088 477.821 72.312 479.837C70.584 481.805 68.016 483.245 64.608 484.157V484.229C69.216 484.949 72.696 486.485 75.048 488.837C77.4 491.189 78.576 493.949 78.576 497.117C78.576 501.677 76.944 505.205 73.68 507.701C70.464 510.197 66.264 511.445 61.08 511.445H36.6V506.693ZM55.896 483.077C58.728 483.029 60.768 482.141 62.016 480.413C63.312 478.637 63.96 476.309 63.96 473.429C63.96 470.837 63.24 468.941 61.8 467.741C60.36 466.541 58.608 465.941 56.544 465.941C55.536 465.941 54.72 466.061 54.096 466.301C53.52 466.541 53.04 467.117 52.656 468.029C52.32 468.893 52.152 470.213 52.152 471.989V483.149L55.896 483.077ZM51.864 506.333C55.032 506.333 57.36 506.309 58.848 506.261C61.68 506.117 63.792 505.229 65.184 503.597C66.576 501.917 67.272 499.685 67.272 496.901C67.272 493.829 66.384 491.621 64.608 490.277C62.832 488.885 60.624 488.189 57.984 488.189C55.344 488.189 53.4 488.213 52.152 488.261V499.997C52.152 502.589 52.056 504.701 51.864 506.333ZM83.4281 506.693C84.7241 506.645 85.7081 506.501 86.3801 506.261C87.0521 505.973 87.5801 505.397 87.9641 504.533C88.3481 503.669 88.5401 502.301 88.5401 500.429V472.853C88.5401 470.165 88.6361 468.005 88.8281 466.373L83.4281 466.589V461.045H104.092V465.797C102.796 465.845 101.812 466.013 101.14 466.301C100.468 466.541 99.9401 467.093 99.5561 467.957C99.1721 468.821 98.9801 470.189 98.9801 472.061V499.637C98.9801 502.325 98.8841 504.485 98.6921 506.117C100.228 505.973 102.028 505.901 104.092 505.901V511.445H83.4281V506.693ZM107.96 506.477C109.208 506.477 110.24 506.117 111.056 505.397C111.92 504.677 112.592 503.813 113.072 502.805C113.552 501.749 114.152 500.237 114.872 498.269L128.912 459.749H133.952L149.288 498.989C149.672 499.949 150.08 501.149 150.512 502.589C150.944 503.981 151.208 505.157 151.304 506.117C152.888 505.973 154.28 505.901 155.48 505.901V511.445H136.112V506.693C138.416 506.693 139.568 505.733 139.568 503.813C139.568 502.853 139.304 501.701 138.776 500.357L137.336 496.397L121.712 496.685L120.56 500.069C120.416 500.453 120.08 501.317 119.552 502.661C119.072 504.005 118.64 505.085 118.256 505.901C119.792 505.757 121.496 505.685 123.368 505.685V511.445H107.96V506.477ZM135.536 491.285L132.224 482.285C130.832 478.349 129.92 475.061 129.488 472.421H129.416C128.648 475.877 127.76 479.045 126.752 481.925L123.512 491.285H135.536Z" fill="#00B8C2"/>
<path d="M35.4 579.85C36.264 579.818 36.92 579.722 37.368 579.562C37.816 579.37 38.168 578.986 38.424 578.41C38.68 577.834 38.808 576.922 38.808 575.674V557.29C38.808 555.498 38.872 554.058 39 552.97L35.4 553.114V549.418H59.4L59.688 558.73H56.52C56.52 556.362 55.944 554.73 54.792 553.834C53.672 552.906 52.312 552.474 50.712 552.538L48.984 552.586C48.216 552.618 47.608 552.73 47.16 552.922C46.712 553.082 46.36 553.466 46.104 554.074C45.88 554.682 45.768 555.578 45.768 556.762V565.114H50.712C50.68 564.698 50.616 563.322 50.52 560.986H54.216V572.65H51.048C51.048 571.37 50.84 570.426 50.424 569.818C50.04 569.178 49.512 568.778 48.84 568.618C48.2 568.458 47.368 568.394 46.344 568.426H45.768V575.146C45.768 576.938 45.704 578.378 45.576 579.466C46.6 579.37 48.024 579.322 49.848 579.322V583.018H35.4V579.85ZM61.6868 579.898C62.9028 579.898 63.6708 579.562 63.9908 578.89C64.3428 578.218 64.5188 577.13 64.5188 575.626V567.562C64.5188 566.122 64.5828 564.762 64.7108 563.482L61.3508 563.626V559.978C63.3668 559.978 64.9988 559.834 66.2468 559.546C67.4948 559.258 68.3268 558.922 68.7428 558.538H71.0948C71.1588 559.018 71.2068 559.642 71.2388 560.41C71.2708 561.178 71.2868 561.93 71.2868 562.666H71.3828C73.5588 559.722 75.8628 558.25 78.2948 558.25C79.5108 558.25 80.5028 558.586 81.2708 559.258C82.0708 559.93 82.4708 560.922 82.4708 562.234C82.4708 563.066 82.1988 563.834 81.6548 564.538C81.1108 565.242 80.2948 565.594 79.2068 565.594C78.4068 565.594 77.6868 565.386 77.0468 564.97C76.4388 564.554 76.0868 563.834 75.9908 562.81C75.0948 562.81 74.1668 563.338 73.2068 564.394C72.2788 565.418 71.6548 566.442 71.3348 567.466V575.29C71.3348 576.826 71.2708 578.234 71.1428 579.514C72.1668 579.418 73.2068 579.37 74.2628 579.37V583.018H61.6868V579.898ZM91.5173 554.266C90.4293 554.266 89.5333 553.898 88.8293 553.162C88.1253 552.394 87.7733 551.466 87.7733 550.378C87.7733 549.29 88.1413 548.362 88.8773 547.594C89.6133 546.794 90.4773 546.394 91.4693 546.394C92.4933 546.394 93.3413 546.778 94.0133 547.546C94.7173 548.314 95.0693 549.258 95.0693 550.378C95.0693 551.498 94.7333 552.426 94.0613 553.162C93.4213 553.898 92.5733 554.266 91.5173 554.266ZM84.7493 579.898C85.9653 579.898 86.7333 579.562 87.0533 578.89C87.4053 578.218 87.5813 577.13 87.5813 575.626V567.658C87.5813 566.154 87.6453 564.762 87.7733 563.482L84.4133 563.626V559.978C86.4293 559.978 88.0613 559.834 89.3093 559.546C90.5573 559.258 91.3893 558.922 91.8053 558.538H94.3973V575.29C94.3973 576.826 94.3333 578.234 94.2053 579.514C95.2293 579.418 96.2693 579.37 97.3253 579.37V583.018H84.7493V579.898ZM111.828 583.786C109.492 583.786 107.428 583.274 105.636 582.25C103.844 581.194 102.452 579.706 101.46 577.786C100.468 575.866 99.9724 573.626 99.9724 571.066C99.9724 568.826 100.468 566.73 101.46 564.778C102.484 562.794 103.908 561.21 105.732 560.026C107.556 558.842 109.636 558.25 111.972 558.25C115.076 558.25 117.652 559.162 119.7 560.986C121.78 562.81 122.804 565.85 122.772 570.106L107.028 570.394C107.028 573.21 107.556 575.434 108.612 577.066C109.7 578.698 111.428 579.514 113.796 579.514C114.916 579.514 116.116 579.226 117.396 578.65C118.676 578.074 119.828 577.162 120.852 575.914L123.012 577.93C120.292 581.834 116.564 583.786 111.828 583.786ZM116.148 567.034C116.052 563.418 114.74 561.61 112.212 561.61C110.836 561.61 109.732 562.106 108.9 563.098C108.1 564.058 107.572 565.37 107.316 567.034H116.148ZM126.281 579.898C127.497 579.898 128.265 579.562 128.585 578.89C128.937 578.218 129.113 577.13 129.113 575.626V567.562C129.113 566.122 129.177 564.762 129.305 563.482L125.945 563.626V559.978C127.961 559.978 129.593 559.834 130.841 559.546C132.089 559.258 132.921 558.922 133.337 558.538H135.689C135.689 558.602 135.753 559.402 135.881 560.938H135.977C136.905 560.202 138.041 559.578 139.385 559.066C140.761 558.522 141.929 558.25 142.889 558.25C145.801 558.25 147.881 559.082 149.129 560.746C150.377 562.41 151.001 565.114 151.001 568.858V575.29C151.001 576.826 150.937 578.234 150.809 579.514C151.865 579.418 152.905 579.37 153.929 579.37V583.018H141.353V579.898C142.569 579.898 143.353 579.562 143.705 578.89C144.057 578.218 144.233 577.13 144.233 575.626L144.185 568.81C144.185 566.698 143.881 565.146 143.273 564.154C142.697 563.162 141.705 562.666 140.297 562.666C139.529 562.666 138.745 562.842 137.945 563.194C137.145 563.514 136.473 563.93 135.929 564.442V575.29C135.929 576.826 135.865 578.234 135.737 579.514C136.761 579.418 137.801 579.37 138.857 579.37V583.018H126.281V579.898ZM166.06 583.786C164.14 583.786 162.444 583.29 160.972 582.298C159.532 581.306 158.396 579.898 157.564 578.074C156.764 576.218 156.364 574.074 156.364 571.642C156.364 569.082 156.86 566.794 157.852 564.778C158.844 562.73 160.236 561.13 162.028 559.978C163.852 558.826 165.932 558.25 168.268 558.25C169.516 558.25 170.94 558.538 172.54 559.114V555.946C172.54 554.41 172.604 553.002 172.732 551.722C171.676 551.818 170.54 551.866 169.324 551.866V548.218C171.34 548.218 172.972 548.074 174.22 547.786C175.468 547.498 176.3 547.162 176.716 546.778H179.308V575.29C179.308 576.826 179.244 578.234 179.116 579.514C180.172 579.418 181.212 579.37 182.236 579.37V583.018H173.116L172.876 580.81H172.828C170.94 582.794 168.684 583.786 166.06 583.786ZM168.556 579.418C169.356 579.418 170.108 579.21 170.812 578.794C171.516 578.378 172.092 577.818 172.54 577.114V562.714C172.188 562.458 171.692 562.25 171.052 562.09C170.412 561.898 169.772 561.802 169.132 561.802C167.084 561.834 165.612 562.714 164.716 564.442C163.852 566.17 163.42 568.33 163.42 570.922C163.42 573.226 163.836 575.226 164.668 576.922C165.532 578.586 166.828 579.418 168.556 579.418ZM184.622 579.898C185.486 579.898 186.11 579.738 186.494 579.418C186.91 579.066 187.166 578.602 187.262 578.026C187.39 577.45 187.454 576.65 187.454 575.626V555.898C187.454 554.362 187.518 552.97 187.646 551.722L184.286 551.866V548.218C186.302 548.218 187.934 548.074 189.182 547.786C190.43 547.498 191.262 547.162 191.678 546.778H194.27V575.29C194.27 576.826 194.206 578.234 194.078 579.514C195.134 579.418 196.174 579.37 197.198 579.37V583.018H184.622V579.898ZM205.104 596.026C203.856 596.026 202.816 595.658 201.984 594.922C201.152 594.186 200.736 593.242 200.736 592.09C200.736 591.194 201.024 590.41 201.6 589.738C202.208 589.098 202.96 588.778 203.856 588.778C204.56 588.778 205.136 589.018 205.584 589.498C206.064 590.01 206.304 590.666 206.304 591.466C206.304 591.722 206.288 591.93 206.256 592.09V592.138C206.864 592.138 207.536 591.37 208.272 589.834C209.04 588.298 209.728 586.442 210.336 584.266L202.752 569.05C201.92 567.45 201.36 566.202 201.072 565.306C200.784 564.378 200.576 563.466 200.448 562.57L198.24 562.666V559.018H210.192V562.09C208.848 562.25 208.176 562.874 208.176 563.962C208.176 564.506 208.336 565.13 208.656 565.834L213.36 576.586H213.408L214.416 573.37C214.768 572.154 215.44 570.042 216.432 567.034C217.136 564.794 217.808 563.29 218.448 562.522V562.474L215.712 562.666V559.018H224.256V562.09C223.328 562.314 222.528 562.89 221.856 563.818C221.184 564.746 220.576 565.994 220.032 567.562L214.032 584.698C213.072 587.546 212.192 589.754 211.392 591.322C210.592 592.89 209.696 594.058 208.704 594.826C207.744 595.626 206.544 596.026 205.104 596.026ZM239.447 579.85C240.311 579.818 240.967 579.722 241.415 579.562C241.863 579.37 242.215 578.986 242.471 578.41C242.727 577.834 242.855 576.922 242.855 575.674V557.29C242.855 555.498 242.919 554.058 243.047 552.97L239.447 553.114V549.418L253.079 549.322C257.463 549.29 260.839 550.058 263.207 551.626C265.607 553.194 266.807 555.738 266.807 559.258C266.807 561.466 266.087 563.434 264.647 565.162C263.239 566.858 261.143 568.106 258.359 568.906V568.954C258.935 569.178 259.527 569.578 260.135 570.154C260.743 570.698 261.255 571.306 261.671 571.978L263.927 575.338C265.015 577.034 265.911 578.202 266.615 578.842C267.351 579.482 268.247 579.818 269.303 579.85V583.018H261.383C260.839 582.634 260.295 582.09 259.751 581.386C259.207 580.65 258.583 579.69 257.879 578.506L254.327 572.746C253.527 571.466 252.855 570.538 252.311 569.962H249.815V575.098C249.815 576.922 249.751 578.378 249.623 579.466C250.647 579.37 252.007 579.322 253.703 579.322V583.018H239.447V579.85ZM252.119 566.506C254.743 566.506 256.631 565.93 257.783 564.778C258.967 563.594 259.559 561.754 259.559 559.258C259.559 556.602 258.871 554.842 257.495 553.978C256.151 553.114 254.663 552.682 253.031 552.682C251.911 552.682 251.095 552.922 250.583 553.402C250.071 553.882 249.815 554.906 249.815 556.474V566.314C250.775 566.442 251.543 566.506 252.119 566.506ZM282.641 583.786C280.305 583.786 278.241 583.274 276.449 582.25C274.657 581.194 273.265 579.706 272.273 577.786C271.281 575.866 270.785 573.626 270.785 571.066C270.785 568.826 271.281 566.73 272.273 564.778C273.297 562.794 274.721 561.21 276.545 560.026C278.369 558.842 280.449 558.25 282.785 558.25C285.889 558.25 288.465 559.162 290.513 560.986C292.593 562.81 293.617 565.85 293.585 570.106L277.841 570.394C277.841 573.21 278.369 575.434 279.425 577.066C280.513 578.698 282.241 579.514 284.609 579.514C285.729 579.514 286.929 579.226 288.209 578.65C289.489 578.074 290.641 577.162 291.665 575.914L293.825 577.93C291.105 581.834 287.377 583.786 282.641 583.786ZM286.961 567.034C286.865 563.418 285.553 561.61 283.025 561.61C281.649 561.61 280.545 562.106 279.713 563.098C278.913 564.058 278.385 565.37 278.129 567.034H286.961ZM308.421 583.786C306.245 583.786 304.261 583.306 302.469 582.346C300.677 581.354 299.253 579.946 298.197 578.122C297.141 576.266 296.613 574.074 296.613 571.546C296.613 569.146 297.141 566.938 298.197 564.922C299.253 562.874 300.725 561.258 302.613 560.074C304.533 558.858 306.693 558.25 309.093 558.25C311.045 558.25 312.709 558.554 314.085 559.162C315.493 559.77 316.549 560.586 317.253 561.61C317.957 562.602 318.309 563.674 318.309 564.826C318.309 565.818 318.005 566.666 317.397 567.37C316.821 568.074 316.021 568.426 314.997 568.426C313.941 568.426 313.141 568.106 312.597 567.466C312.085 566.826 311.829 566.106 311.829 565.306C311.829 564.57 312.021 563.866 312.405 563.194C312.117 562.618 311.653 562.218 311.013 561.994C310.373 561.738 309.733 561.61 309.093 561.61C307.461 561.61 306.133 562.362 305.109 563.866C304.117 565.338 303.621 567.434 303.621 570.154C303.621 572.874 304.149 575.114 305.205 576.874C306.261 578.634 307.925 579.514 310.197 579.514C311.477 579.514 312.741 579.178 313.989 578.506C315.237 577.834 316.293 576.938 317.157 575.818L319.365 577.978C317.765 580.186 316.053 581.706 314.229 582.538C312.405 583.37 310.469 583.786 308.421 583.786ZM333.697 583.786C331.361 583.786 329.265 583.29 327.409 582.298C325.553 581.306 324.097 579.882 323.041 578.026C321.985 576.17 321.457 574.01 321.457 571.546C321.457 568.954 322.001 566.65 323.089 564.634C324.177 562.618 325.633 561.05 327.457 559.93C329.313 558.81 331.345 558.25 333.553 558.25C335.857 558.25 337.921 558.746 339.745 559.738C341.569 560.73 343.009 562.17 344.065 564.058C345.121 565.914 345.649 568.09 345.649 570.586C345.649 573.242 345.137 575.562 344.113 577.546C343.121 579.53 341.713 581.066 339.889 582.154C338.097 583.242 336.033 583.786 333.697 583.786ZM333.793 580.378C335.553 580.378 336.785 579.562 337.489 577.93C338.193 576.298 338.545 574.25 338.545 571.786C338.545 569.034 338.145 566.65 337.345 564.634C336.545 562.618 335.281 561.61 333.553 561.61C331.793 561.61 330.513 562.442 329.713 564.106C328.913 565.77 328.513 567.818 328.513 570.25C328.513 573.034 328.945 575.418 329.809 577.402C330.673 579.386 332.001 580.378 333.793 580.378ZM349.124 579.898C350.34 579.898 351.108 579.562 351.428 578.89C351.78 578.218 351.956 577.13 351.956 575.626V567.562C351.956 566.122 352.02 564.762 352.148 563.482L348.788 563.626V559.978C350.804 559.978 352.436 559.834 353.684 559.546C354.932 559.258 355.764 558.922 356.18 558.538H358.532C358.532 558.602 358.596 559.402 358.724 560.938H358.82C359.812 560.138 360.932 559.498 362.18 559.018C363.428 558.506 364.644 558.25 365.828 558.25C367.268 558.25 368.468 558.522 369.428 559.066C370.42 559.578 371.204 560.362 371.78 561.418C372.932 560.458 374.212 559.69 375.62 559.114C377.028 558.538 378.356 558.25 379.604 558.25C382.26 558.25 384.228 559.018 385.508 560.554C386.82 562.09 387.476 564.65 387.476 568.234V575.29C387.476 576.826 387.412 578.234 387.284 579.514C388.308 579.418 389.348 579.37 390.404 579.37V583.018H378.26V579.898C379.284 579.898 379.94 579.562 380.228 578.89C380.516 578.186 380.66 577.098 380.66 575.626V568.282C380.628 566.266 380.292 564.842 379.652 564.01C379.012 563.146 378.084 562.714 376.868 562.714C375.46 562.714 374.084 563.242 372.74 564.298C373.028 565.578 373.172 567.098 373.172 568.858V575.29C373.172 576.826 373.108 578.234 372.98 579.514C374.004 579.418 375.044 579.37 376.1 579.37V583.018H363.716V579.898C364.836 579.898 365.556 579.562 365.876 578.89C366.196 578.218 366.356 577.13 366.356 575.626L366.308 568.138C366.308 566.154 366.02 564.762 365.444 563.962C364.868 563.13 364.004 562.698 362.852 562.666C361.444 562.666 360.084 563.258 358.772 564.442V575.29C358.772 576.826 358.708 578.234 358.58 579.514C359.604 579.418 360.564 579.37 361.46 579.37V583.018H349.124V579.898ZM393.281 579.898C394.497 579.898 395.265 579.562 395.585 578.89C395.937 578.218 396.113 577.13 396.113 575.626V567.562C396.113 566.122 396.177 564.762 396.305 563.482L392.945 563.626V559.978C394.961 559.978 396.593 559.834 397.841 559.546C399.089 559.258 399.921 558.922 400.337 558.538H402.689C402.689 558.602 402.753 559.402 402.881 560.938H402.977C403.969 560.138 405.089 559.498 406.337 559.018C407.585 558.506 408.801 558.25 409.985 558.25C411.425 558.25 412.625 558.522 413.585 559.066C414.577 559.578 415.361 560.362 415.937 561.418C417.089 560.458 418.369 559.69 419.777 559.114C421.185 558.538 422.513 558.25 423.761 558.25C426.417 558.25 428.385 559.018 429.665 560.554C430.977 562.09 431.633 564.65 431.633 568.234V575.29C431.633 576.826 431.569 578.234 431.441 579.514C432.465 579.418 433.505 579.37 434.561 579.37V583.018H422.417V579.898C423.441 579.898 424.097 579.562 424.385 578.89C424.673 578.186 424.817 577.098 424.817 575.626V568.282C424.785 566.266 424.449 564.842 423.809 564.01C423.169 563.146 422.241 562.714 421.025 562.714C419.617 562.714 418.241 563.242 416.897 564.298C417.185 565.578 417.329 567.098 417.329 568.858V575.29C417.329 576.826 417.265 578.234 417.137 579.514C418.161 579.418 419.201 579.37 420.257 579.37V583.018H407.873V579.898C408.993 579.898 409.713 579.562 410.033 578.89C410.353 578.218 410.513 577.13 410.513 575.626L410.465 568.138C410.465 566.154 410.177 564.762 409.601 563.962C409.025 563.13 408.161 562.698 407.009 562.666C405.601 562.666 404.241 563.258 402.929 564.442V575.29C402.929 576.826 402.865 578.234 402.737 579.514C403.761 579.418 404.721 579.37 405.617 579.37V583.018H393.281V579.898ZM448.813 583.786C446.477 583.786 444.413 583.274 442.621 582.25C440.829 581.194 439.437 579.706 438.445 577.786C437.453 575.866 436.957 573.626 436.957 571.066C436.957 568.826 437.453 566.73 438.445 564.778C439.469 562.794 440.893 561.21 442.717 560.026C444.541 558.842 446.621 558.25 448.957 558.25C452.061 558.25 454.637 559.162 456.685 560.986C458.765 562.81 459.789 565.85 459.757 570.106L444.013 570.394C444.013 573.21 444.541 575.434 445.597 577.066C446.685 578.698 448.413 579.514 450.781 579.514C451.901 579.514 453.101 579.226 454.381 578.65C455.661 578.074 456.813 577.162 457.837 575.914L459.997 577.93C457.277 581.834 453.549 583.786 448.813 583.786ZM453.133 567.034C453.037 563.418 451.725 561.61 449.197 561.61C447.821 561.61 446.717 562.106 445.885 563.098C445.085 564.058 444.557 565.37 444.301 567.034H453.133ZM463.265 579.898C464.481 579.898 465.249 579.562 465.569 578.89C465.921 578.218 466.097 577.13 466.097 575.626V567.562C466.097 566.122 466.161 564.762 466.289 563.482L462.929 563.626V559.978C464.945 559.978 466.577 559.834 467.825 559.546C469.073 559.258 469.905 558.922 470.321 558.538H472.673C472.673 558.602 472.737 559.402 472.865 560.938H472.961C473.889 560.202 475.025 559.578 476.369 559.066C477.745 558.522 478.913 558.25 479.873 558.25C482.785 558.25 484.865 559.082 486.113 560.746C487.361 562.41 487.985 565.114 487.985 568.858V575.29C487.985 576.826 487.921 578.234 487.793 579.514C488.849 579.418 489.889 579.37 490.913 579.37V583.018H478.337V579.898C479.553 579.898 480.337 579.562 480.689 578.89C481.041 578.218 481.217 577.13 481.217 575.626L481.169 568.81C481.169 566.698 480.865 565.146 480.257 564.154C479.681 563.162 478.689 562.666 477.281 562.666C476.513 562.666 475.729 562.842 474.929 563.194C474.129 563.514 473.457 563.93 472.913 564.442V575.29C472.913 576.826 472.849 578.234 472.721 579.514C473.745 579.418 474.785 579.37 475.841 579.37V583.018H463.265V579.898ZM503.045 583.786C501.125 583.786 499.429 583.29 497.957 582.298C496.517 581.306 495.381 579.898 494.549 578.074C493.749 576.218 493.349 574.074 493.349 571.642C493.349 569.082 493.845 566.794 494.837 564.778C495.829 562.73 497.221 561.13 499.013 559.978C500.837 558.826 502.917 558.25 505.253 558.25C506.501 558.25 507.925 558.538 509.525 559.114V555.946C509.525 554.41 509.589 553.002 509.717 551.722C508.661 551.818 507.525 551.866 506.309 551.866V548.218C508.325 548.218 509.957 548.074 511.205 547.786C512.453 547.498 513.285 547.162 513.701 546.778H516.293V575.29C516.293 576.826 516.229 578.234 516.101 579.514C517.157 579.418 518.197 579.37 519.221 579.37V583.018H510.101L509.861 580.81H509.813C507.925 582.794 505.669 583.786 503.045 583.786ZM505.541 579.418C506.341 579.418 507.093 579.21 507.797 578.794C508.501 578.378 509.077 577.818 509.525 577.114V562.714C509.173 562.458 508.677 562.25 508.037 562.09C507.397 561.898 506.757 561.802 506.117 561.802C504.069 561.834 502.597 562.714 501.701 564.442C500.837 566.17 500.405 568.33 500.405 570.922C500.405 573.226 500.821 575.226 501.653 576.922C502.517 578.586 503.813 579.418 505.541 579.418ZM528.374 583.786C526.358 583.786 524.758 583.194 523.574 582.01C522.422 580.794 521.846 579.258 521.846 577.402C521.846 574.586 523.158 572.458 525.782 571.018C528.406 569.546 531.558 568.73 535.238 568.57V566.074C535.238 563.162 534.15 561.706 531.974 561.706C530.566 561.706 529.414 562.154 528.518 563.05C528.902 563.498 529.094 564.106 529.094 564.874C529.094 565.642 528.822 566.33 528.278 566.938C527.766 567.546 526.998 567.85 525.974 567.85C525.014 567.85 524.262 567.546 523.718 566.938C523.174 566.298 522.902 565.514 522.902 564.586C522.902 563.338 523.35 562.234 524.246 561.274C525.142 560.314 526.358 559.578 527.894 559.066C529.462 558.522 531.174 558.25 533.03 558.25C538.95 558.25 541.91 561.306 541.91 567.418L541.862 575.29C541.862 576.826 541.798 578.234 541.67 579.514C542.726 579.418 543.766 579.37 544.79 579.37V583.018H535.718C535.654 582.602 535.59 581.866 535.526 580.81H535.478C533.526 582.794 531.158 583.786 528.374 583.786ZM531.398 579.082C532.838 579.082 534.102 578.506 535.19 577.354V571.978C533.302 572.17 531.734 572.65 530.486 573.418C529.27 574.186 528.662 575.226 528.662 576.538C528.662 577.402 528.918 578.042 529.43 578.458C529.974 578.874 530.63 579.082 531.398 579.082ZM556.863 583.786C551.871 583.786 549.375 580.714 549.375 574.57L549.471 563.002H546.207V559.018C547.231 559.018 548.191 558.698 549.087 558.058C550.015 557.418 550.799 556.634 551.439 555.706C552.079 554.778 552.527 553.882 552.783 553.018H556.335L556.287 559.018H562.383V562.714L556.287 562.858L556.239 574.666C556.239 577.77 557.199 579.322 559.119 579.322C560.655 579.322 562.111 578.362 563.487 576.442L565.791 578.602C564.287 580.81 562.783 582.234 561.279 582.874C559.775 583.482 558.303 583.786 556.863 583.786ZM573.955 554.266C572.867 554.266 571.971 553.898 571.267 553.162C570.563 552.394 570.211 551.466 570.211 550.378C570.211 549.29 570.579 548.362 571.315 547.594C572.051 546.794 572.915 546.394 573.907 546.394C574.931 546.394 575.779 546.778 576.451 547.546C577.155 548.314 577.507 549.258 577.507 550.378C577.507 551.498 577.171 552.426 576.499 553.162C575.859 553.898 575.011 554.266 573.955 554.266ZM567.187 579.898C568.403 579.898 569.171 579.562 569.491 578.89C569.843 578.218 570.019 577.13 570.019 575.626V567.658C570.019 566.154 570.083 564.762 570.211 563.482L566.851 563.626V559.978C568.867 559.978 570.499 559.834 571.747 559.546C572.995 559.258 573.827 558.922 574.243 558.538H576.835V575.29C576.835 576.826 576.771 578.234 576.643 579.514C577.667 579.418 578.707 579.37 579.763 579.37V583.018H567.187V579.898ZM594.65 583.786C592.314 583.786 590.218 583.29 588.362 582.298C586.506 581.306 585.05 579.882 583.994 578.026C582.938 576.17 582.41 574.01 582.41 571.546C582.41 568.954 582.954 566.65 584.042 564.634C585.13 562.618 586.586 561.05 588.41 559.93C590.266 558.81 592.298 558.25 594.506 558.25C596.81 558.25 598.874 558.746 600.698 559.738C602.522 560.73 603.962 562.17 605.018 564.058C606.074 565.914 606.602 568.09 606.602 570.586C606.602 573.242 606.09 575.562 605.066 577.546C604.074 579.53 602.666 581.066 600.842 582.154C599.05 583.242 596.986 583.786 594.65 583.786ZM594.746 580.378C596.506 580.378 597.738 579.562 598.442 577.93C599.146 576.298 599.498 574.25 599.498 571.786C599.498 569.034 599.098 566.65 598.298 564.634C597.498 562.618 596.234 561.61 594.506 561.61C592.746 561.61 591.466 562.442 590.666 564.106C589.866 565.77 589.466 567.818 589.466 570.25C589.466 573.034 589.898 575.418 590.762 577.402C591.626 579.386 592.954 580.378 594.746 580.378ZM610.077 579.898C611.293 579.898 612.061 579.562 612.381 578.89C612.733 578.218 612.909 577.13 612.909 575.626V567.562C612.909 566.122 612.973 564.762 613.101 563.482L609.741 563.626V559.978C611.757 559.978 613.389 559.834 614.637 559.546C615.885 559.258 616.717 558.922 617.133 558.538H619.485C619.485 558.602 619.549 559.402 619.677 560.938H619.773C620.701 560.202 621.837 559.578 623.181 559.066C624.557 558.522 625.725 558.25 626.685 558.25C629.597 558.25 631.677 559.082 632.925 560.746C634.173 562.41 634.797 565.114 634.797 568.858V575.29C634.797 576.826 634.733 578.234 634.605 579.514C635.661 579.418 636.701 579.37 637.725 579.37V583.018H625.149V579.898C626.365 579.898 627.149 579.562 627.501 578.89C627.853 578.218 628.029 577.13 628.029 575.626L627.981 568.81C627.981 566.698 627.677 565.146 627.069 564.154C626.493 563.162 625.501 562.666 624.093 562.666C623.325 562.666 622.541 562.842 621.741 563.194C620.941 563.514 620.269 563.93 619.725 564.442V575.29C619.725 576.826 619.661 578.234 619.533 579.514C620.557 579.418 621.597 579.37 622.653 579.37V583.018H610.077V579.898ZM651.633 583.786C650.257 583.786 648.913 583.61 647.601 583.258C646.289 582.906 645.265 582.458 644.529 581.914H644.481L644.625 583.354H640.977L640.785 575.098H643.905C644.065 576.57 644.833 577.818 646.209 578.842C647.617 579.834 649.329 580.33 651.345 580.33C652.241 580.33 653.009 580.122 653.649 579.706C654.321 579.29 654.657 578.698 654.657 577.93C654.657 577.354 654.449 576.874 654.033 576.49C653.617 576.106 653.121 575.786 652.545 575.53C651.969 575.274 650.817 574.81 649.089 574.138C647.041 573.338 645.505 572.682 644.481 572.17C643.457 571.658 642.529 570.906 641.697 569.914C640.897 568.89 640.497 567.578 640.497 565.978C640.497 564.666 640.817 563.434 641.457 562.282C642.129 561.098 643.137 560.138 644.481 559.402C645.857 558.634 647.537 558.25 649.521 558.25C650.449 558.25 651.457 558.394 652.545 558.682C653.633 558.97 654.545 559.37 655.281 559.882H655.329L655.281 558.49H658.929V566.986H655.809C655.521 565.322 654.785 564.01 653.601 563.05C652.417 562.09 650.961 561.61 649.233 561.61C648.337 561.61 647.585 561.818 646.977 562.234C646.369 562.65 646.065 563.29 646.065 564.154C646.065 565.05 646.417 565.722 647.121 566.17C647.825 566.586 649.009 567.066 650.673 567.61C650.865 567.642 651.281 567.77 651.921 567.994C654.641 568.954 656.721 570.074 658.161 571.354C659.633 572.634 660.369 574.314 660.369 576.394C660.369 577.994 659.953 579.354 659.121 580.474C658.321 581.562 657.249 582.394 655.905 582.97C654.593 583.514 653.169 583.786 651.633 583.786Z" fill="black"/>
</svg>
