<svg height="441pt" viewBox="-88 0 441 441.57" fill='#00B8C2' width="441pt" xmlns="http://www.w3.org/2000/svg"><path d="m258.679688 19.804688c-40.644532-13.046876-83.0625-19.726563-125.746094-19.804688h-.203125c-43.011719.0625-85.757813 6.820312-126.691407 20.035156l-.179687.164063v.058593c-2.214844.71875-4.011719 2.355469-4.925781 4.496094-.9140628 2.140625-.8593752 4.570313.152344 6.667969l57 117.003906c1.078124 2.21875 3.121093 3.816407 5.535156 4.328125 2.410156.511719 4.925781-.117187 6.8125-1.707031l28.960937-24.398437 4.585938 19.296874-33.710938 227.039063 62.667969 68.585937 62.671875-68.585937-33.71875-227.039063 4.574219-19.308593 28.972656 24.410156c1.886719 1.589844 4.398438 2.222656 6.8125 1.710937 2.414062-.511718 4.453125-2.105468 5.535156-4.324218l57-117c1.117188-2.332032 1.066406-5.054688-.136718-7.347656-1.203126-2.289063-3.417969-3.875-5.972657-4.28125zm-125.753907-3.804688c34.535157.078125 68.917969 4.65625 102.269531 13.617188l-102.257812 49.328124-102.398438-49.453124c33.335938-8.902344 67.6875-13.4375 102.191407-13.492188zm-64.945312 116.199219-42.421875-87.078125 92.769531 44.65625zm64.957031 285.652343-45.726562-49.84375 31.8125-214.007812h27.828124l31.8125 214.007812zm14.488281-279.851562h-28.980469l-5.347656-22.695312 19.839844-16.816407 19.820312 16.851563zm50.472657-5.800781-50.351563-42.417969 92.769531-44.660156zm0 0"/></svg>
