<svg height='100px' width='100px'  fill='#00B8C2' xmlns="http://www.w3.org/2000/svg" xmlns:xlink="http://www.w3.org/1999/xlink" version="1.1" x="0px" y="0px" viewBox="0 0 60 60" style="enable-background:new 0 0 60 60;" xml:space="preserve"><g><g><path d="M53,8.8V1c0-0.6-0.4-1-1-1H8C7.5,0,7,0.4,7,1v7.8C2.1,22.5,0,30.4,0,49v7c0,0.5,0.4,0.9,0.9,1l26,3c0.3,0,0.6-0.1,0.8-0.2    S28,59.3,28,59v-6.9l2-8.7l2,8.7V59c0,0.3,0.1,0.6,0.3,0.7c0.2,0.2,0.4,0.3,0.7,0.3c0,0,0.1,0,0.1,0l26-3c0.5-0.1,0.9-0.5,0.9-1    v-7C60,30.4,57.9,22.5,53,8.8z M56.3,27c-9.4-0.3-14-5.7-14.2-17h9.3C53.5,16.3,55.2,21.4,56.3,27z M51,8H31V2h20V8z M29,2v6H9V2    H29z M8.7,10H18c-0.3,11.3-4.8,16.7-14.2,17C4.8,21.4,6.5,16.3,8.7,10z M2,55.1v-5l24,2.8v5L2,55.1z M31,38.8    c-0.1-0.5-0.5-0.8-1-0.8s-0.9,0.3-1,0.8l-2.8,12.1L2,48.1C2,40.2,2.5,34.3,3.4,29c10.9-0.1,16.3-6.4,16.6-19h9v17    c0,0.2,0.1,0.4,0.2,0.6l3,4c0.2,0.3,0.5,0.4,0.8,0.4c0.2,0,0.4-0.1,0.6-0.2c0.4-0.3,0.5-1,0.2-1.4L31,26.7V10h9    c0.3,12.6,5.7,18.8,16.6,19c0.9,5.3,1.3,11.2,1.4,19.1l-24.2,2.8L31,38.8z M34,57.9v-5l24-2.8v5L34,57.9z"></path><path d="M34,6h1c0.6,0,1-0.4,1-1s-0.4-1-1-1h-1c-0.6,0-1,0.4-1,1S33.5,6,34,6z"></path></g></g></svg>
